<svg xmlns="http://www.w3.org/2000/svg" width="453" height="111" viewBox="0 0 453 111" style="background: transparent;">
<g>
<path d="M 370.24 109.92 C369.04,110.62 381.64,110.95 410.75,110.97 L 453.00 111.00 L 0.00 111.00 L 181.25 110.96 C336.44,110.93 362.13,110.72 359.95,109.53 C357.92,108.43 336.72,81.78 319.67,58.90 L 316.99 55.30 L 337.52 28.72 C351.50,10.63 358.92,1.83 360.78,1.15 C362.60,0.49 303.60,0.13 181.75,0.08 L 0.00 0.00 L 453.00 0.00 L 409.25 0.14 C385.19,0.21 366.62,0.48 368.00,0.73 C371.19,1.31 373.16,3.09 378.77,10.50 C381.27,13.80 383.67,16.64 384.10,16.81 C384.53,16.98 384.03,18.11 383.00,19.31 C381.97,20.52 375.26,29.10 368.09,38.39 L 355.06 55.27 L 357.24 58.34 C358.45,60.03 364.85,68.41 371.48,76.96 C378.10,85.51 383.52,92.95 383.51,93.50 C383.49,94.91 372.35,108.69 370.24,109.92 Z" fill="rgb(138,29,64)"/>
<path d="M 0.00 0.00 L 0.09 0.00 L 0.09 55.50 L 0.08 111.00 L 0.00 111.00 ZM 360.29 1.02 C360.74,1.06 360.90,1.11 360.78,1.15 C358.92,1.83 351.50,10.63 337.52,28.72 L 316.99 55.30 L 316.99 55.30 L 336.55 29.90 C347.31,15.93 357.32,3.49 358.80,2.25 ZM 453.00 0.00 L 453.00 0.03 L 409.25 0.16 C386.20,0.23 368.19,0.47 367.93,0.71 C367.67,0.46 385.86,0.21 409.25,0.14 Z" fill="rgb(233,158,174)"/>
<path d="M 181.58 104.02 C173.42,105.08 138.66,105.33 137.67,104.33 C137.30,103.97 137.00,81.87 137.00,55.24 L 137.00 6.81 L 162.75 7.22 C186.15,7.60 188.92,7.82 193.08,9.71 C202.27,13.87 206.91,20.78 207.18,30.69 C207.42,39.16 204.12,45.39 197.16,49.62 L 192.03 52.74 L 196.46 54.43 C201.92,56.52 208.70,63.31 210.01,68.00 C211.59,73.66 211.16,83.06 209.11,87.50 C204.83,96.79 195.88,102.16 181.58,104.02 ZM 370.24 109.92 C372.35,108.69 383.49,94.91 383.51,93.50 C383.52,92.95 378.10,85.51 371.48,76.96 C364.85,68.41 358.45,60.03 357.24,58.34 L 356.62 57.47 C361.58,64.08 374.72,81.19 378.73,86.25 C381.68,89.96 384.26,93.00 384.47,93.00 C384.69,93.00 390.10,86.25 396.49,78.01 C402.89,69.76 408.67,62.45 409.32,61.76 C409.98,61.07 411.23,59.39 412.11,58.02 C413.69,55.59 413.54,55.32 401.91,40.02 C395.42,31.49 388.76,22.92 387.11,21.00 C385.14,18.69 384.45,17.93 383.77,18.28 C384.25,17.52 384.40,16.93 384.10,16.81 C383.67,16.64 381.27,13.80 378.77,10.50 C373.16,3.09 371.19,1.31 368.00,0.73 C367.96,0.72 367.94,0.71 367.93,0.71 C368.19,0.48 385.57,0.24 408.04,0.16 L 411.88 4.26 C414.08,6.60 416.92,9.96 418.19,11.71 C419.46,13.46 421.85,16.60 423.50,18.69 C444.36,45.06 451.00,53.97 451.00,55.56 C451.00,56.54 445.06,64.52 421.66,95.00 C418.49,99.12 414.08,104.41 411.86,106.75 L 407.85 110.97 C380.80,110.93 369.08,110.60 370.24,109.92 ZM 0.09 35.62 C0.16,40.72 0.28,44.00 0.40,44.00 C0.62,44.00 1.73,40.96 2.86,37.25 C3.99,33.54 6.23,28.43 7.84,25.90 C11.11,20.76 18.77,13.00 20.58,13.00 C21.23,13.00 22.29,12.35 22.95,11.56 C27.15,6.49 51.14,3.50 64.20,6.40 C71.66,8.06 78.00,11.11 78.00,13.04 C78.00,13.63 75.66,17.25 72.80,21.08 C69.03,26.14 67.17,27.87 66.05,27.39 C59.86,24.69 53.54,23.88 47.30,24.96 C39.17,26.38 33.74,29.76 29.93,35.78 C25.70,42.45 24.71,47.13 25.23,58.00 C25.74,68.58 27.44,73.07 33.16,78.90 C39.87,85.75 51.63,88.64 60.00,85.52 C60.22,85.43 60.44,85.35 60.65,85.27 C64.33,83.90 66.24,83.18 67.86,83.59 C69.71,84.06 71.19,85.99 74.49,90.07 L 80.34 97.31 L 78.13 99.10 C73.57,102.79 64.84,105.24 54.50,105.74 C42.18,106.33 34.59,104.99 25.50,100.61 C13.71,94.94 6.89,86.68 2.44,72.68 L 0.16 65.50 L 0.08 87.24 L 0.09 55.50 ZM 292.00 103.13 C284.23,106.21 264.22,106.78 255.40,104.17 C243.44,100.63 233.43,92.73 228.45,82.89 C227.09,80.21 226.01,77.90 226.06,77.76 C226.10,77.62 225.67,76.25 225.09,74.72 C221.56,65.45 221.49,48.10 224.94,36.94 C231.65,15.23 249.99,3.87 276.00,5.33 C286.28,5.91 294.07,7.89 297.96,10.92 C300.23,12.68 300.32,13.04 299.05,15.41 C298.29,16.83 295.59,20.31 293.06,23.14 L 288.45 28.28 L 284.97 26.45 C282.58,25.18 279.31,24.61 274.45,24.59 C264.84,24.54 256.92,28.38 252.28,35.32 C248.07,41.61 247.01,45.72 247.01,55.74 C247.00,69.56 251.67,78.65 261.18,83.27 C270.88,87.99 273.71,88.39 280.50,85.98 C281.01,85.80 281.48,85.63 281.94,85.47 C286.37,83.89 288.50,83.13 290.24,83.66 C292.04,84.21 293.41,86.13 296.45,89.94 L 302.14 97.07 L 299.82 99.01 C298.54,100.08 295.02,101.93 292.00,103.13 ZM 113.96 103.07 C113.06,104.76 111.84,104.99 104.21,104.94 C99.42,104.90 94.49,104.47 93.25,103.97 L 91.00 103.06 L 91.00 7.00 L 102.38 7.00 C113.34,7.00 113.79,7.08 114.37,9.25 C115.46,13.31 115.08,100.98 113.96,103.07 ZM 160.75 87.44 C162.18,88.93 177.75,87.33 181.21,85.34 C185.99,82.59 188.40,77.19 187.07,72.24 C185.06,64.78 179.68,62.00 167.26,62.00 L 160.00 62.00 L 160.00 74.33 C160.00,81.12 160.34,87.02 160.75,87.44 ZM 160.67 45.33 C161.71,46.38 171.08,46.10 175.50,44.90 C183.45,42.73 186.88,36.16 183.62,29.33 C181.44,24.75 176.99,23.00 167.53,23.00 L 160.00 23.00 L 160.00 33.83 C160.00,39.79 160.30,44.97 160.67,45.33 ZM 355.80 56.31 L 355.06 55.27 L 368.09 38.39 C371.32,34.21 374.45,30.17 377.01,26.89 C374.50,30.16 371.37,34.20 368.11,38.41 C360.40,48.37 355.69,55.22 355.80,56.31 Z" fill="rgb(194,31,63)"/>
</g>
</svg>