<svg xmlns="http://www.w3.org/2000/svg" width="400" height="400" viewBox="0 0 400 400">
<g>
<path d="M 161.25 368.34 C164.20,369.53 139.18,368.77 135.29,367.55 C124.92,364.31 123.38,362.71 99.88,330.74 C76.25,298.60 58.87,274.98 42.66,253.00 L 29.03 234.50 C27.00,231.75 20.77,223.32 15.17,215.76 L 5.00 202.03 L 24.68 175.26 C35.50,160.54 58.08,129.82 74.84,107.00 C121.85,43.00 121.39,43.59 126.71,40.22 C133.35,36.01 137.83,35.01 150.22,35.01 C159.12,35.00 160.84,35.24 160.39,36.44 C160.03,37.36 161.28,38.79 163.88,40.42 C166.27,41.93 170.87,46.98 175.12,52.74 C179.07,58.11 183.53,64.08 185.02,66.02 C194.00,77.69 198.12,83.62 198.61,85.57 C199.04,87.29 195.47,92.76 182.22,110.64 C172.91,123.21 153.95,148.97 140.09,167.88 C114.95,202.20 114.90,202.27 116.80,204.38 C118.61,206.40 197.84,314.21 199.32,316.68 C199.73,317.36 196.33,322.79 191.19,329.68 C186.33,336.18 179.28,345.69 175.52,350.81 C171.75,355.94 166.73,361.47 164.34,363.11 C159.85,366.20 159.10,367.47 161.25,368.34 Z" fill="rgb(138,29,65)"/>
<path d="M 259.45 365.08 C258.74,366.23 257.90,366.22 256.06,365.06 C254.87,364.31 254.85,363.88 255.94,362.58 C256.66,361.71 258.06,361.00 259.05,361.00 C260.17,361.00 260.98,360.14 261.18,358.75 C261.40,357.20 262.28,356.41 264.00,356.22 C269.64,355.59 271.12,354.78 273.68,350.91 L 276.36 346.86 L 273.64 344.68 C270.37,342.05 269.65,337.33 272.28,335.64 C274.68,334.10 275.96,336.19 275.98,341.68 C276.00,344.99 276.42,346.00 278.02,346.50 C279.66,347.03 279.96,347.82 279.63,350.77 C279.10,355.64 274.97,359.18 266.63,361.96 C263.00,363.17 259.77,364.57 259.45,365.08 ZM 289.42 196.75 C289.72,199.53 289.00,199.70 288.29,197.01 C288.01,195.92 287.42,195.24 287.00,195.50 C286.57,195.76 285.67,195.31 284.99,194.49 C284.31,193.67 283.19,193.00 282.50,193.00 C280.67,193.00 278.70,190.27 278.38,187.32 C278.23,185.91 277.19,183.89 276.05,182.84 C274.92,181.78 274.00,180.49 274.00,179.96 C274.00,179.43 273.33,179.00 272.50,179.00 C270.83,179.00 270.48,177.44 271.94,176.54 C272.45,176.22 273.24,176.57 273.69,177.33 C274.13,178.08 275.74,179.00 277.27,179.37 C279.60,179.94 280.18,179.66 280.98,177.55 C282.58,173.33 290.00,172.77 290.00,176.86 C290.00,178.97 288.16,180.00 284.42,180.00 C282.59,180.00 282.00,180.54 282.00,182.20 C282.00,184.53 286.68,192.00 288.14,192.00 C288.61,192.00 288.95,192.34 288.88,192.75 C288.82,193.16 288.85,193.73 288.96,194.00 C289.08,194.27 289.28,195.51 289.42,196.75 ZM 375.00 223.54 C375.00,223.15 373.21,224.78 371.03,227.16 C368.84,229.55 367.04,230.91 367.03,230.19 C367.01,229.47 366.59,229.14 366.08,229.45 C365.55,229.78 365.48,228.87 365.91,227.26 C366.31,225.74 366.94,224.73 367.31,225.00 C368.39,225.81 375.21,214.99 374.61,213.42 C374.31,212.64 372.96,212.00 371.61,212.00 C367.84,212.00 366.00,210.97 366.00,208.86 C366.00,204.78 372.89,205.27 374.82,209.50 C375.79,211.64 376.42,211.93 378.74,211.36 C380.26,210.98 382.08,209.96 382.80,209.08 C384.70,206.76 381.03,214.04 378.73,217.15 C377.65,218.62 377.04,220.25 377.37,220.79 C377.70,221.33 377.31,222.33 376.49,223.01 C375.67,223.69 375.00,223.93 375.00,223.54 ZM 288.06 339.72 C286.02,341.31 285.48,341.29 284.04,339.55 C282.41,337.59 283.69,334.00 286.01,334.00 C288.79,334.00 289.16,332.64 287.80,327.53 C286.41,322.33 287.33,319.71 290.73,319.20 C294.50,318.63 296.26,321.72 295.61,327.75 C294.93,333.94 294.46,335.00 292.41,335.00 C291.60,335.00 290.64,335.79 290.28,336.75 C289.92,337.71 288.92,339.05 288.06,339.72 ZM 257.84 271.62 C257.62,272.77 256.51,273.60 254.99,273.76 C252.02,274.07 250.71,273.28 249.09,270.20 C248.19,268.50 247.34,268.07 245.81,268.56 C242.61,269.58 241.69,266.96 244.28,264.20 C245.49,262.92 246.52,261.33 246.59,260.68 C246.65,260.03 246.76,258.99 246.85,258.37 C246.93,257.75 248.37,256.67 250.05,255.98 C251.89,255.22 252.90,254.19 252.60,253.39 C252.32,252.66 252.63,251.72 253.29,251.31 C257.26,248.83 259.43,253.31 255.75,256.36 C252.53,259.03 250.01,263.14 250.01,265.75 C250.00,267.54 250.57,268.00 252.75,268.02 C256.44,268.04 258.27,269.34 257.84,271.62 ZM 321.00 294.50 C320.98,293.95 320.53,294.17 320.00,295.00 C319.47,295.83 318.99,296.27 318.93,296.00 C318.26,292.58 318.50,290.98 319.61,291.40 C320.41,291.71 320.69,291.36 320.35,290.46 C320.04,289.66 320.51,288.74 321.40,288.40 C322.28,288.06 323.00,287.25 323.00,286.60 C323.00,285.95 323.89,283.69 324.97,281.56 C327.25,277.09 326.91,276.01 323.19,275.98 C319.56,275.96 317.73,274.65 318.16,272.38 C318.38,271.21 319.52,270.38 321.17,270.19 C323.73,269.89 324.72,270.55 327.28,274.26 C328.28,275.69 329.09,275.84 331.75,275.08 C335.12,274.10 335.87,274.73 333.80,276.80 C333.14,277.46 332.93,278.00 333.34,278.00 C333.75,278.00 333.50,278.63 332.79,279.40 C332.08,280.16 331.09,280.54 330.60,280.24 C330.10,279.94 330.00,280.20 330.39,280.82 C332.21,283.77 326.15,289.91 322.18,289.14 C321.20,288.95 321.12,289.35 321.86,290.74 C322.48,291.89 322.51,293.16 321.95,294.05 C321.44,294.85 321.02,295.05 321.00,294.50 ZM 216.00 39.97 C194.82,40.27 176.82,40.84 176.00,41.24 C175.09,41.68 173.52,41.15 172.00,39.90 C170.62,38.76 170.03,38.10 170.68,38.43 C171.33,38.76 172.15,38.57 172.50,38.00 C172.85,37.43 173.67,37.30 174.32,37.70 C174.97,38.10 192.82,38.51 214.00,38.60 C235.18,38.69 252.95,38.92 253.50,39.10 C254.05,39.28 237.18,39.68 216.00,39.97 ZM 300.62 80.15 C300.54,81.77 299.87,82.53 298.47,82.60 C294.89,82.78 292.00,81.17 292.00,78.99 C292.00,77.74 290.83,76.24 289.07,75.23 C285.85,73.38 284.65,69.86 286.42,67.45 C287.54,65.91 291.00,66.35 291.00,68.04 C291.00,68.92 291.82,69.79 297.23,74.65 C299.49,76.69 300.69,78.64 300.62,80.15 ZM 224.80 106.80 C223.09,108.51 222.20,108.31 219.70,105.63 C215.11,100.69 213.26,98.07 213.87,97.39 C214.22,97.00 213.81,96.93 212.96,97.23 C211.94,97.59 211.43,97.16 211.43,95.93 C211.43,94.92 211.62,94.28 211.85,94.51 C212.08,94.74 213.07,94.50 214.06,93.97 C215.32,93.29 216.26,93.40 217.19,94.33 C217.92,95.06 219.12,95.46 219.86,95.21 C220.79,94.90 221.03,95.35 220.62,96.63 C220.19,97.99 220.84,98.96 223.02,100.20 C226.12,101.97 226.87,104.73 224.80,106.80 ZM 186.87 351.75 C185.62,354.08 182.58,354.66 180.04,353.04 C178.84,352.29 179.26,351.45 182.29,348.51 C184.33,346.53 186.00,344.49 186.00,343.97 C186.00,343.46 187.13,342.31 188.51,341.40 C190.52,340.08 191.30,340.00 192.51,341.00 C194.90,342.99 194.26,345.94 191.04,347.79 C189.41,348.73 187.53,350.51 186.87,351.75 ZM 354.97 250.05 C352.21,255.46 348.43,254.98 349.50,249.36 C349.69,248.34 349.88,247.19 349.92,246.80 C349.97,246.42 351.24,245.52 352.75,244.80 C354.54,243.94 355.61,242.57 355.81,240.84 C356.11,238.26 358.26,236.91 360.75,237.75 C362.74,238.42 362.21,240.88 359.49,243.60 C358.12,244.97 356.08,247.88 354.97,250.05 ZM 285.00 59.37 C285.00,60.67 277.25,61.22 276.48,59.97 C276.28,59.65 276.01,57.09 275.88,54.29 C275.73,50.90 275.26,49.35 274.49,49.64 C273.84,49.89 272.73,49.38 272.00,48.50 C270.96,47.25 270.94,46.66 271.91,45.71 C272.86,44.76 273.88,45.37 276.59,48.50 C278.49,50.70 281.16,53.76 282.52,55.29 C283.89,56.83 285.00,58.66 285.00,59.37 ZM 210.00 85.46 C210.00,86.27 209.12,87.40 208.03,87.98 C204.92,89.65 202.90,85.69 203.46,79.03 C203.94,73.29 205.02,71.41 207.31,72.29 C208.77,72.85 210.26,79.00 208.93,79.00 C208.54,79.00 208.28,80.12 208.36,81.50 C208.44,82.87 208.84,84.00 209.25,84.00 C209.66,84.00 210.00,84.66 210.00,85.46 ZM 345.85 145.68 C345.25,146.40 344.45,147.00 344.07,147.00 C342.52,147.00 340.20,144.34 339.64,141.92 C339.32,140.50 337.91,138.83 336.52,138.19 C333.46,136.80 333.31,135.44 336.07,133.96 C337.83,133.02 338.57,133.30 340.97,135.81 C342.52,137.43 344.29,138.93 344.91,139.14 C346.51,139.67 347.15,144.11 345.85,145.68 ZM 258.27 154.75 C257.74,156.26 256.35,156.38 255.49,154.98 C255.14,154.42 254.44,154.23 253.93,154.54 C253.42,154.86 253.00,154.42 253.00,153.57 C253.00,152.71 251.65,150.81 250.00,149.34 C248.35,147.87 247.20,146.47 247.44,146.23 C247.68,145.99 247.50,144.81 247.04,143.61 C246.34,141.77 246.58,141.39 248.53,141.23 C250.37,141.07 251.10,141.76 251.99,144.47 C252.61,146.36 253.93,148.16 254.91,148.47 C256.92,149.11 258.92,152.85 258.27,154.75 ZM 308.00 312.89 C308.00,313.33 307.15,314.46 306.10,315.41 C304.30,317.04 304.13,317.02 302.74,315.04 C300.48,311.81 301.71,308.15 305.62,306.51 C307.48,305.74 309.00,304.58 309.00,303.94 C309.00,303.31 309.62,303.02 310.38,303.31 C311.14,303.61 312.30,303.32 312.97,302.67 C313.64,302.03 312.79,303.88 311.09,306.79 C309.39,309.71 308.00,312.45 308.00,312.89 ZM 217.75 307.42 C218.79,308.46 217.54,307.97 215.96,306.72 C213.88,305.07 214.65,302.10 218.11,298.50 C219.69,296.85 221.59,294.64 222.34,293.60 C224.03,291.23 226.00,292.30 226.00,295.58 C226.00,297.24 225.18,298.42 223.50,299.18 C222.12,299.81 221.00,300.92 221.00,301.66 C221.00,302.40 220.14,303.86 219.08,304.92 C218.03,305.97 217.43,307.10 217.75,307.42 ZM 267.00 239.98 C267.00,240.54 266.33,241.00 265.50,241.00 C264.67,241.00 264.00,240.52 264.00,239.94 C264.00,238.51 268.81,229.87 270.65,228.00 C271.96,226.67 272.26,226.69 273.39,228.21 C275.62,231.21 274.21,235.53 270.41,237.34 C268.53,238.24 267.00,239.42 267.00,239.98 ZM 309.02 99.33 C305.65,101.32 305.34,101.35 304.38,99.81 C303.98,99.15 304.18,98.44 304.83,98.22 C305.48,98.01 305.76,97.42 305.45,96.91 C305.14,96.41 305.36,96.00 305.94,96.00 C307.65,96.00 307.17,94.67 304.38,91.66 C301.16,88.19 302.46,85.74 306.20,88.25 C313.33,93.03 314.16,96.29 309.02,99.33 ZM 236.23 288.61 C235.07,290.38 229.12,290.85 227.82,289.28 C226.47,287.66 229.32,283.20 232.84,281.41 C234.02,280.81 234.65,279.93 234.24,279.44 C233.83,278.96 234.29,279.17 235.25,279.91 C237.03,281.27 237.62,286.51 236.23,288.61 ZM 206.30 323.37 C200.43,326.36 199.83,325.48 203.03,318.66 C205.06,314.35 207.21,313.26 209.75,315.26 C210.43,315.80 210.79,317.37 210.54,318.74 C210.01,321.68 210.33,321.32 206.30,323.37 ZM 355.39 175.42 C354.64,177.38 352.63,177.46 351.08,175.60 C349.43,173.61 350.79,169.18 353.62,167.33 C355.22,166.28 356.00,164.82 356.00,162.88 C356.00,161.30 356.43,160.00 356.96,160.00 C358.30,160.00 360.24,163.84 359.64,165.31 C359.30,166.15 359.13,166.11 359.08,165.18 C358.90,162.14 356.00,167.00 356.00,170.35 C356.00,172.27 355.73,174.55 355.39,175.42 ZM 235.67 116.34 C235.92,116.58 235.98,118.93 235.81,121.55 L 235.50 126.32 L 231.25 122.50 C225.60,117.41 225.55,115.00 231.11,115.51 C233.37,115.72 235.42,116.09 235.67,116.34 ZM 371.59 179.62 C370.91,181.39 370.12,181.33 366.74,179.24 C363.47,177.21 362.37,174.46 364.04,172.45 C366.22,169.83 369.00,170.75 370.61,174.62 C371.44,176.61 371.89,178.86 371.59,179.62 ZM 387.98 201.09 C387.99,202.89 387.24,204.02 385.51,204.81 C384.14,205.44 383.11,205.62 383.22,205.22 C383.33,204.83 382.94,203.60 382.34,202.50 C381.13,200.27 381.52,196.08 383.08,194.52 C384.50,193.11 387.95,197.74 387.98,201.09 ZM 184.91 50.25 C180.72,52.64 178.52,52.45 176.62,49.54 C175.73,48.18 175.00,46.79 175.00,46.44 C175.00,46.10 177.36,46.15 180.25,46.55 C183.14,46.96 186.06,47.30 186.75,47.31 C188.82,47.35 188.16,48.40 184.91,50.25 ZM 347.04 255.64 C348.32,256.92 343.05,263.85 341.24,263.25 C339.74,262.75 339.61,258.59 341.03,255.95 C342.09,253.96 345.20,253.80 347.04,255.64 ZM 266.84 165.40 C266.47,165.17 266.02,165.37 265.84,165.84 C265.22,167.40 262.98,165.86 261.40,162.80 C260.35,160.77 260.25,160.03 261.09,160.55 C261.96,161.09 262.15,160.84 261.73,159.73 C261.14,158.19 261.90,158.07 267.25,158.89 C267.66,158.95 267.89,160.53 267.75,162.40 C267.61,164.27 267.20,165.62 266.84,165.40 ZM 379.50 191.77 C379.72,194.77 374.08,194.33 372.91,191.25 C371.70,188.08 371.76,186.26 373.10,185.44 C374.52,184.56 379.32,189.32 379.50,191.77 ZM 334.85 128.25 C333.60,129.45 328.37,130.04 327.42,129.08 C325.82,127.49 328.36,123.32 330.75,123.60 C331.44,123.68 332.69,123.81 333.53,123.88 C335.67,124.05 336.46,126.69 334.85,128.25 ZM 269.52 43.03 C270.45,44.53 258.78,44.15 256.75,42.61 C253.81,40.37 254.59,38.76 258.25,39.50 C265.15,40.91 268.94,42.09 269.52,43.03 ZM 198.47 67.64 C196.36,69.19 196.30,69.19 193.25,67.97 C190.65,66.92 190.28,64.49 192.58,63.61 C197.71,61.64 202.34,64.82 198.47,67.64 ZM 207.80 336.80 C207.14,337.46 206.10,338.00 205.50,338.00 C204.04,338.00 202.00,335.90 202.00,334.41 C202.00,332.64 204.87,331.86 207.07,333.04 C209.30,334.23 209.48,335.12 207.80,336.80 ZM 321.22 112.08 C320.82,112.12 319.73,112.30 318.79,112.48 C316.31,112.96 314.42,110.40 315.92,108.59 C317.55,106.63 320.18,107.26 321.13,109.83 C321.57,111.02 321.61,112.03 321.22,112.08 ZM 290.12 207.75 C289.96,209.47 286.34,209.33 285.67,207.58 C285.37,206.80 285.94,205.23 286.93,204.08 C289.01,201.69 289.65,201.49 289.71,203.25 C289.73,203.94 289.86,204.95 289.99,205.50 C290.13,206.05 290.18,207.06 290.12,207.75 ZM 338.23 271.62 C336.01,273.31 335.00,273.33 335.00,271.69 C335.00,270.24 337.92,265.99 337.97,267.37 C337.99,267.85 338.60,267.75 339.33,267.14 C340.34,266.30 340.67,266.39 340.67,267.52 C340.67,268.33 340.22,269.00 339.67,269.00 C339.12,269.00 338.96,269.29 339.32,269.65 C339.68,270.01 339.19,270.89 338.23,271.62 ZM 327.21 116.96 C327.47,118.73 327.15,120.11 326.42,120.39 C324.67,121.06 324.00,120.08 324.00,116.83 C324.00,113.00 326.64,113.11 327.21,116.96 ZM 241.80 129.58 C241.99,130.93 241.54,131.67 240.53,131.67 C238.31,131.67 236.66,129.33 237.44,127.29 C237.96,125.95 238.29,125.85 238.92,126.86 C239.36,127.58 240.12,128.02 240.61,127.84 C241.10,127.65 241.63,128.44 241.80,129.58 ZZM 323.98 120.75 C323.94,122.71 322.38,123.85 320.97,122.95 C319.68,122.11 319.68,121.88 321.00,121.02 C322.80,119.83 324.01,119.73 323.98,120.75 ZM 177.00 359.94 C177.00,360.46 176.55,361.16 176.00,361.50 C175.45,361.84 175.00,361.42 175.00,360.56 C175.00,359.70 175.45,359.00 176.00,359.00 C176.55,359.00 177.00,359.42 177.00,359.94 ZM 285.50 194.00 C285.84,194.55 286.32,195.00 286.56,195.00 C286.80,195.00 287.00,194.55 287.00,194.00 C287.00,193.45 286.52,193.00 285.94,193.00 C285.36,193.00 285.16,193.45 285.50,194.00 ZM 297.50 321.00 C297.16,321.55 296.68,322.00 296.44,322.00 C296.20,322.00 296.00,321.55 296.00,321.00 C296.00,320.45 296.48,320.00 297.06,320.00 C297.64,320.00 297.84,320.45 297.50,321.00 Z" fill="rgb(198,31,62)"/>
<path d="M 161.25 368.34 C159.10,367.47 159.85,366.20 164.34,363.11 C166.73,361.47 171.75,355.94 175.52,350.81 C179.28,345.69 186.33,336.18 191.19,329.68 C196.33,322.79 199.73,317.36 199.32,316.68 C199.13,316.36 197.70,314.37 195.34,311.11 C198.08,314.82 199.67,316.95 199.70,316.96 C199.92,317.00 220.27,289.71 228.11,278.87 C230.64,275.37 239.84,262.83 248.55,251.00 C278.02,210.97 284.00,202.67 284.00,201.76 C284.00,201.26 281.60,197.62 278.66,193.68 C273.28,186.43 269.85,181.78 246.54,150.00 C239.48,140.38 232.03,130.25 229.98,127.50 C227.94,124.75 220.33,114.46 213.07,104.64 L 199.87 86.78 L 186.02 105.49 C196.16,91.67 198.99,87.12 198.61,85.57 C198.12,83.62 194.00,77.69 185.02,66.02 C183.53,64.08 179.07,58.11 175.12,52.74 C170.87,46.98 166.27,41.93 163.88,40.42 C161.28,38.79 160.03,37.36 160.39,36.44 C160.64,35.78 160.23,35.41 158.30,35.21 C168.93,35.12 183.51,35.12 202.50,35.21 C263.51,35.50 264.57,35.53 269.15,37.65 C275.79,40.72 279.51,44.89 297.60,69.55 C353.03,145.11 365.90,162.63 379.61,181.19 L 394.90 201.89 L 385.45 214.69 C375.57,228.07 374.11,230.06 333.01,286.00 C319.06,304.98 301.03,329.50 292.92,340.50 C278.14,360.58 275.57,363.32 268.38,366.68 C264.77,368.37 260.10,368.51 202.00,368.70 L 199.18 368.71 C182.45,368.76 170.12,368.80 160.89,368.74 C161.51,368.65 161.68,368.51 161.25,368.34 ZM 259.45 365.08 C259.77,364.57 263.00,363.17 266.63,361.96 C274.97,359.18 279.10,355.64 279.63,350.77 C279.96,347.82 279.66,347.03 278.02,346.50 C276.42,346.00 276.00,344.99 275.98,341.68 C275.96,336.19 274.68,334.10 272.28,335.64 C269.65,337.33 270.37,342.05 273.64,344.68 L 276.36 346.86 L 273.68 350.91 C271.12,354.78 269.64,355.59 264.00,356.22 C262.28,356.41 261.40,357.20 261.18,358.75 C260.98,360.14 260.17,361.00 259.05,361.00 C258.06,361.00 256.66,361.71 255.94,362.58 C254.85,363.88 254.87,364.31 256.06,365.06 C257.90,366.22 258.74,366.23 259.45,365.08 ZM 289.42 196.75 C289.28,195.51 289.08,194.27 288.96,194.00 C288.85,193.73 288.82,193.16 288.88,192.75 C288.95,192.34 288.61,192.00 288.14,192.00 C286.68,192.00 282.00,184.53 282.00,182.20 C282.00,180.54 282.59,180.00 284.42,180.00 C288.16,180.00 290.00,178.97 290.00,176.86 C290.00,172.77 282.58,173.33 280.98,177.55 C280.18,179.66 279.60,179.94 277.27,179.37 C275.74,179.00 274.13,178.08 273.69,177.33 C273.24,176.57 272.45,176.22 271.94,176.54 C270.48,177.44 270.83,179.00 272.50,179.00 C273.33,179.00 274.00,179.43 274.00,179.96 C274.00,180.49 274.92,181.78 276.05,182.84 C277.19,183.89 278.23,185.91 278.38,187.32 C278.70,190.27 280.67,193.00 282.50,193.00 C283.19,193.00 284.31,193.67 284.99,194.49 C285.67,195.31 286.57,195.76 287.00,195.50 C287.42,195.24 288.01,195.92 288.29,197.01 C289.00,199.70 289.72,199.53 289.42,196.75 ZM 375.00 223.54 C375.00,223.93 375.67,223.69 376.49,223.01 C377.31,222.33 377.70,221.33 377.37,220.79 C377.04,220.25 377.65,218.62 378.73,217.15 C381.03,214.04 384.70,206.76 382.80,209.08 C382.08,209.96 380.26,210.98 378.74,211.36 C376.42,211.93 375.79,211.64 374.82,209.50 C372.89,205.27 366.00,204.78 366.00,208.86 C366.00,210.97 367.84,212.00 371.61,212.00 C372.96,212.00 374.31,212.64 374.61,213.42 C375.21,214.99 368.39,225.81 367.31,225.00 C366.94,224.73 366.31,225.74 365.91,227.26 C365.48,228.87 365.55,229.78 366.08,229.45 C366.59,229.14 367.01,229.47 367.03,230.19 C367.04,230.91 368.84,229.55 371.03,227.16 C373.21,224.78 375.00,223.15 375.00,223.54 ZM 288.06 339.72 C288.92,339.05 289.92,337.71 290.28,336.75 C290.64,335.79 291.60,335.00 292.41,335.00 C294.46,335.00 294.93,333.94 295.61,327.75 C296.26,321.72 294.50,318.63 290.73,319.20 C287.33,319.71 286.41,322.33 287.80,327.53 C289.16,332.64 288.79,334.00 286.01,334.00 C283.69,334.00 282.41,337.59 284.04,339.55 C285.48,341.29 286.02,341.31 288.06,339.72 ZM 257.84 271.62 C258.27,269.34 256.44,268.04 252.75,268.02 C250.57,268.00 250.00,267.54 250.01,265.75 C250.01,263.14 252.53,259.03 255.75,256.36 C259.43,253.31 257.26,248.83 253.29,251.31 C252.63,251.72 252.32,252.66 252.60,253.39 C252.90,254.19 251.89,255.22 250.05,255.98 C248.37,256.67 246.93,257.75 246.85,258.37 C246.76,258.99 246.65,260.03 246.59,260.68 C246.52,261.33 245.49,262.92 244.28,264.20 C241.69,266.96 242.61,269.58 245.81,268.56 C247.34,268.07 248.19,268.50 249.09,270.20 C250.71,273.28 252.02,274.07 254.99,273.76 C256.51,273.60 257.62,272.77 257.84,271.62 ZM 321.00 294.50 C321.02,295.05 321.44,294.85 321.95,294.05 C322.51,293.16 322.48,291.89 321.86,290.74 C321.12,289.35 321.20,288.95 322.18,289.14 C326.15,289.91 332.21,283.77 330.39,280.82 C330.00,280.20 330.10,279.94 330.60,280.24 C331.09,280.54 332.08,280.16 332.79,279.40 C333.50,278.63 333.75,278.00 333.34,278.00 C332.93,278.00 333.14,277.46 333.80,276.80 C335.87,274.73 335.12,274.10 331.75,275.08 C329.09,275.84 328.28,275.69 327.28,274.26 C324.72,270.55 323.73,269.89 321.17,270.19 C319.52,270.38 318.38,271.21 318.16,272.38 C317.73,274.65 319.56,275.96 323.19,275.98 C326.91,276.01 327.25,277.09 324.97,281.56 C323.89,283.69 323.00,285.95 323.00,286.60 C323.00,287.25 322.28,288.06 321.40,288.40 C320.51,288.74 320.04,289.66 320.35,290.46 C320.69,291.36 320.41,291.71 319.61,291.40 C318.50,290.98 318.26,292.58 318.93,296.00 C318.99,296.27 319.47,295.83 320.00,295.00 C320.53,294.17 320.98,293.95 321.00,294.50 ZM 216.00 39.97 C237.18,39.68 254.05,39.28 253.50,39.10 C252.95,38.92 235.18,38.69 214.00,38.60 C192.82,38.51 174.97,38.10 174.32,37.70 C173.67,37.30 172.85,37.43 172.50,38.00 C172.15,38.57 171.33,38.76 170.68,38.43 C170.03,38.10 170.62,38.76 172.00,39.90 C173.52,41.15 175.09,41.68 176.00,41.24 C176.82,40.84 194.82,40.27 216.00,39.97 ZM 300.62 80.15 C300.69,78.64 299.49,76.69 297.23,74.65 C291.82,69.79 291.00,68.92 291.00,68.04 C291.00,66.35 287.54,65.91 286.42,67.45 C284.65,69.86 285.85,73.38 289.07,75.23 C290.83,76.24 292.00,77.74 292.00,78.99 C292.00,81.17 294.89,82.78 298.47,82.60 C299.87,82.53 300.54,81.77 300.62,80.15 ZM 224.80 106.80 C226.87,104.73 226.12,101.97 223.02,100.20 C220.84,98.96 220.19,97.99 220.62,96.63 C221.03,95.35 220.79,94.90 219.86,95.21 C219.12,95.46 217.92,95.06 217.19,94.33 C216.26,93.40 215.32,93.29 214.06,93.97 C213.07,94.50 212.08,94.74 211.85,94.51 C211.62,94.28 211.43,94.92 211.43,95.93 C211.43,97.16 211.94,97.59 212.96,97.23 C213.81,96.93 214.22,97.00 213.87,97.39 C213.26,98.07 215.11,100.69 219.70,105.63 C222.20,108.31 223.09,108.51 224.80,106.80 ZM 186.87 351.75 C187.53,350.51 189.41,348.73 191.04,347.79 C194.26,345.94 194.90,342.99 192.51,341.00 C191.30,340.00 190.52,340.08 188.51,341.40 C187.13,342.31 186.00,343.46 186.00,343.97 C186.00,344.49 184.33,346.53 182.29,348.51 C179.26,351.45 178.84,352.29 180.04,353.04 C182.58,354.66 185.62,354.08 186.87,351.75 ZM 354.97 250.05 C356.08,247.88 358.12,244.97 359.49,243.60 C362.21,240.88 362.74,238.42 360.75,237.75 C358.26,236.91 356.11,238.26 355.81,240.84 C355.61,242.57 354.54,243.94 352.75,244.80 C351.24,245.52 349.97,246.42 349.92,246.80 C349.88,247.19 349.69,248.34 349.50,249.36 C348.43,254.98 352.21,255.46 354.97,250.05 ZM 285.00 59.37 C285.00,58.66 283.89,56.83 282.52,55.29 C281.16,53.76 278.49,50.70 276.59,48.50 C273.88,45.37 272.86,44.76 271.91,45.71 C270.94,46.66 270.96,47.25 272.00,48.50 C272.73,49.38 273.84,49.89 274.49,49.64 C275.26,49.35 275.73,50.90 275.88,54.29 C276.01,57.09 276.28,59.65 276.48,59.97 C277.25,61.22 285.00,60.67 285.00,59.37 ZM 210.00 85.46 C210.00,84.66 209.66,84.00 209.25,84.00 C208.84,84.00 208.44,82.87 208.36,81.50 C208.28,80.12 208.54,79.00 208.93,79.00 C210.26,79.00 208.77,72.85 207.31,72.29 C205.02,71.41 203.94,73.29 203.46,79.03 C202.90,85.69 204.92,89.65 208.03,87.98 C209.12,87.40 210.00,86.27 210.00,85.46 ZM 345.85 145.68 C347.15,144.11 346.51,139.67 344.91,139.14 C344.29,138.93 342.52,137.43 340.97,135.81 C338.57,133.30 337.83,133.02 336.07,133.96 C333.31,135.44 333.46,136.80 336.52,138.19 C337.91,138.83 339.32,140.50 339.64,141.92 C340.20,144.34 342.52,147.00 344.07,147.00 C344.45,147.00 345.25,146.40 345.85,145.68 ZM 258.27 154.75 C258.92,152.85 256.92,149.11 254.91,148.47 C253.93,148.16 252.61,146.36 251.99,144.47 C251.10,141.76 250.37,141.07 248.53,141.23 C246.58,141.39 246.34,141.77 247.04,143.61 C247.50,144.81 247.68,145.99 247.44,146.23 C247.20,146.47 248.35,147.87 250.00,149.34 C251.65,150.81 253.00,152.71 253.00,153.57 C253.00,154.42 253.42,154.86 253.93,154.54 C254.44,154.23 255.14,154.42 255.49,154.98 C256.35,156.38 257.74,156.26 258.27,154.75 ZM 308.00 312.89 C308.00,312.45 309.39,309.71 311.09,306.79 C312.79,303.88 313.64,302.03 312.97,302.67 C312.30,303.32 311.14,303.61 310.38,303.31 C309.62,303.02 309.00,303.31 309.00,303.94 C309.00,304.58 307.48,305.74 305.62,306.51 C301.71,308.15 300.48,311.81 302.74,315.04 C304.13,317.02 304.30,317.04 306.10,315.41 C307.15,314.46 308.00,313.33 308.00,312.89 ZM 217.75 307.42 C217.43,307.10 218.03,305.97 219.08,304.92 C220.14,303.86 221.00,302.40 221.00,301.66 C221.00,300.92 222.12,299.81 223.50,299.18 C225.18,298.42 226.00,297.24 226.00,295.58 C226.00,292.30 224.03,291.23 222.34,293.60 C221.59,294.64 219.69,296.85 218.11,298.50 C214.65,302.10 213.88,305.07 215.96,306.72 C217.54,307.97 218.79,308.46 217.75,307.42 ZM 267.00 239.98 C267.00,239.42 268.53,238.24 270.41,237.34 C274.21,235.53 275.62,231.21 273.39,228.21 C272.26,226.69 271.96,226.67 270.65,228.00 C268.81,229.87 264.00,238.51 264.00,239.94 C264.00,240.52 264.67,241.00 265.50,241.00 C266.33,241.00 267.00,240.54 267.00,239.98 ZM 309.02 99.33 C314.16,96.29 313.33,93.03 306.20,88.25 C302.46,85.74 301.16,88.19 304.38,91.66 C307.17,94.67 307.65,96.00 305.94,96.00 C305.36,96.00 305.14,96.41 305.45,96.91 C305.76,97.42 305.48,98.01 304.83,98.22 C304.18,98.44 303.98,99.15 304.38,99.81 C305.34,101.35 305.65,101.32 309.02,99.33 ZM 236.23 288.61 C237.62,286.51 237.03,281.27 235.25,279.91 C234.29,279.17 233.83,278.96 234.24,279.44 C234.65,279.93 234.02,280.81 232.84,281.41 C229.32,283.20 226.47,287.66 227.82,289.28 C229.12,290.85 235.07,290.38 236.23,288.61 ZM 206.30 323.37 C210.33,321.32 210.01,321.68 210.54,318.74 C210.79,317.37 210.43,315.80 209.75,315.26 C207.21,313.26 205.06,314.35 203.03,318.66 C199.83,325.48 200.43,326.36 206.30,323.37 ZM 355.39 175.42 C355.73,174.55 356.00,172.27 356.00,170.35 C356.00,167.00 358.90,162.14 359.08,165.18 C359.13,166.11 359.30,166.15 359.64,165.31 C360.24,163.84 358.30,160.00 356.96,160.00 C356.43,160.00 356.00,161.30 356.00,162.88 C356.00,164.82 355.22,166.28 353.62,167.33 C350.79,169.18 349.43,173.61 351.08,175.60 C352.63,177.46 354.64,177.38 355.39,175.42 ZM 235.67 116.34 C235.42,116.09 233.37,115.72 231.11,115.51 C225.55,115.00 225.60,117.41 231.25,122.50 L 235.50 126.32 L 235.81 121.55 C235.98,118.93 235.92,116.58 235.67,116.34 ZM 371.59 179.62 C371.89,178.86 371.44,176.61 370.61,174.62 C369.00,170.75 366.22,169.83 364.04,172.45 C362.37,174.46 363.47,177.21 366.74,179.24 C370.12,181.33 370.91,181.39 371.59,179.62 ZM 387.98 201.09 C387.95,197.74 384.50,193.11 383.08,194.52 C381.52,196.08 381.13,200.27 382.34,202.50 C382.94,203.60 383.33,204.83 383.22,205.22 C383.11,205.62 384.14,205.44 385.51,204.81 C387.24,204.02 387.99,202.89 387.98,201.09 ZM 184.91 50.25 C188.16,48.40 188.82,47.35 186.75,47.31 C186.06,47.30 183.14,46.96 180.25,46.55 C177.36,46.15 175.00,46.10 175.00,46.44 C175.00,46.79 175.73,48.18 176.62,49.54 C178.52,52.45 180.72,52.64 184.91,50.25 ZM 347.04 255.64 C345.20,253.80 342.09,253.96 341.03,255.95 C339.61,258.59 339.74,262.75 341.24,263.25 C343.05,263.85 348.32,256.92 347.04,255.64 ZM 266.84 165.40 C267.20,165.62 267.61,164.27 267.75,162.40 C267.89,160.53 267.66,158.95 267.25,158.89 C261.90,158.07 261.14,158.19 261.73,159.73 C262.15,160.84 261.96,161.09 261.09,160.55 C260.25,160.03 260.35,160.77 261.40,162.80 C262.98,165.86 265.22,167.40 265.84,165.84 C266.02,165.37 266.47,165.17 266.84,165.40 ZM 379.50 191.77 C379.32,189.32 374.52,184.56 373.10,185.44 C371.76,186.26 371.70,188.08 372.91,191.25 C374.08,194.33 379.72,194.77 379.50,191.77 ZM 334.85 128.25 C336.46,126.69 335.67,124.05 333.53,123.88 C332.69,123.81 331.44,123.68 330.75,123.60 C328.36,123.32 325.82,127.49 327.42,129.08 C328.37,130.04 333.60,129.45 334.85,128.25 ZM 269.52 43.03 C268.94,42.09 265.15,40.91 258.25,39.50 C254.59,38.76 253.81,40.37 256.75,42.61 C258.78,44.15 270.45,44.53 269.52,43.03 ZM 198.47 67.64 C202.34,64.82 197.71,61.64 192.58,63.61 C190.28,64.49 190.65,66.92 193.25,67.97 C196.30,69.19 196.36,69.19 198.47,67.64 ZM 207.80 336.80 C209.48,335.12 209.30,334.23 207.07,333.04 C204.87,331.86 202.00,332.64 202.00,334.41 C202.00,335.90 204.04,338.00 205.50,338.00 C206.10,338.00 207.14,337.46 207.80,336.80 ZM 321.22 112.08 C321.61,112.03 321.57,111.02 321.13,109.83 C320.18,107.26 317.55,106.63 315.92,108.59 C314.42,110.40 316.31,112.96 318.79,112.48 C319.73,112.30 320.82,112.12 321.22,112.08 ZM 290.12 207.75 C290.18,207.06 290.13,206.05 289.99,205.50 C289.86,204.95 289.73,203.94 289.71,203.25 C289.65,201.49 289.01,201.69 286.93,204.08 C285.94,205.23 285.37,206.80 285.67,207.58 C286.34,209.33 289.96,209.47 290.12,207.75 ZM 338.23 271.62 C339.19,270.89 339.68,270.01 339.32,269.65 C338.96,269.29 339.12,269.00 339.67,269.00 C340.22,269.00 340.67,268.33 340.67,267.52 C340.67,266.39 340.34,266.30 339.33,267.14 C338.60,267.75 337.99,267.85 337.97,267.37 C337.92,265.99 335.00,270.24 335.00,271.69 C335.00,273.33 336.01,273.31 338.23,271.62 ZM 327.21 116.96 C326.64,113.11 324.00,113.00 324.00,116.83 C324.00,120.08 324.67,121.06 326.42,120.39 C327.15,120.11 327.47,118.73 327.21,116.96 ZM 241.80 129.58 C241.63,128.44 241.10,127.65 240.61,127.84 C240.12,128.02 239.36,127.58 238.92,126.86 C238.29,125.85 237.96,125.95 237.44,127.29 C236.66,129.33 238.31,131.67 240.53,131.67 C241.54,131.67 241.99,130.93 241.80,129.58 ZZM 323.98 120.75 C324.01,119.73 322.80,119.83 321.00,121.02 C319.68,121.88 319.68,122.11 320.97,122.95 C322.38,123.85 323.94,122.71 323.98,120.75 ZM 177.00 359.94 C177.00,359.42 176.55,359.00 176.00,359.00 C175.45,359.00 175.00,359.70 175.00,360.56 C175.00,361.42 175.45,361.84 176.00,361.50 C176.55,361.16 177.00,360.46 177.00,359.94 ZM 285.50 194.00 C285.16,193.45 285.36,193.00 285.94,193.00 C286.52,193.00 287.00,193.45 287.00,194.00 C287.00,194.55 286.80,195.00 286.56,195.00 C286.32,195.00 285.84,194.55 285.50,194.00 ZM 297.50 321.00 C297.84,320.45 297.64,320.00 297.06,320.00 C296.48,320.00 296.00,320.45 296.00,321.00 C296.00,321.55 296.20,322.00 296.44,322.00 C296.68,322.00 297.16,321.55 297.50,321.00 ZM 126.82 363.74 L 126.59 363.61 C124.28,362.25 121.50,359.38 115.19,351.23 C120.48,358.01 123.75,361.55 126.82,363.74 ZM 116.12 203.31 L 124.31 214.36 C125.92,216.53 128.94,220.63 132.90,226.02 C123.78,213.66 117.31,204.94 116.80,204.38 C116.48,204.02 116.22,203.72 116.12,203.31 ZM 170.50 126.51 C161.14,139.22 149.77,154.69 140.58,167.23 L 131.10 180.17 C133.66,176.65 136.64,172.59 140.09,167.88 C149.41,155.16 161.05,139.33 170.50,126.51 ZM 137.37 35.82 C136.15,36.04 135.03,36.32 133.95,36.67 C134.71,36.39 135.40,36.17 136.00,36.03 C136.30,35.95 136.75,35.88 137.37,35.82 ZM 128.03 39.41 C127.60,39.67 127.16,39.94 126.71,40.22 C124.64,41.53 123.45,42.24 119.99,46.39 C123.44,42.25 124.65,41.52 126.71,40.20 C127.12,39.94 127.56,39.67 128.03,39.41 Z" fill="rgb(198,31,64)"/>
<path d="M 0.00 200.00 L 0.00 0.00 L 200.00 0.00 L 400.00 0.00 L 400.00 200.00 L 400.00 400.00 L 200.00 400.00 L 0.00 400.00 L 0.00 200.00 ZM 268.38 366.68 C275.57,363.32 278.14,360.58 292.92,340.50 C301.03,329.50 319.06,304.98 333.01,286.00 C374.11,230.06 375.57,228.07 385.45,214.69 L 394.90 201.89 L 379.61 181.19 C365.90,162.63 353.03,145.11 297.60,69.55 C279.51,44.89 275.79,40.72 269.15,37.65 C264.57,35.53 263.51,35.50 202.50,35.21 C159.49,35.00 139.12,35.26 136.00,36.03 C133.52,36.64 129.35,38.51 126.71,40.20 C121.40,43.59 121.79,43.09 74.84,107.00 C58.08,129.82 35.50,160.54 24.68,175.26 L 5.00 202.03 L 15.17 215.76 C20.77,223.32 27.00,231.75 29.03,234.50 C31.05,237.25 37.19,245.57 42.66,253.00 C58.87,274.98 76.25,298.60 99.88,330.74 C118.07,355.48 122.93,361.46 126.59,363.61 C135.78,368.99 134.68,368.92 202.00,368.70 C260.10,368.51 264.77,368.37 268.38,366.68 ZM 166.50 271.83 C148.35,247.04 129.36,221.18 124.31,214.36 L 115.12 201.97 L 140.58 167.23 C154.58,148.13 173.64,122.21 182.95,109.64 L 199.87 86.78 L 213.07 104.64 C220.33,114.46 227.94,124.75 229.98,127.50 C232.03,130.25 239.48,140.38 246.54,150.00 C269.85,181.78 273.28,186.43 278.66,193.68 C281.60,197.62 284.00,201.26 284.00,201.76 C284.00,202.67 278.02,210.97 248.55,251.00 C239.84,262.83 230.64,275.37 228.11,278.87 C220.27,289.71 199.92,317.00 199.70,316.96 C199.59,316.93 184.65,296.63 166.50,271.83 Z" fill="rgb(254,253,254)"/>
</g>
</svg>